<?xml version="1.0" standalone="no"?>
<!DOCTYPE svg PUBLIC "-//W3C//DTD SVG 20010904//EN"
 "http://www.w3.org/TR/2001/REC-SVG-20010904/DTD/svg10.dtd">
<svg version="1.0" xmlns="http://www.w3.org/2000/svg"
 width="500.000000pt" height="500.000000pt" viewBox="0 0 500.000000 500.000000"
 preserveAspectRatio="xMidYMid meet">
<metadata>
Created by potrace 1.14, written by Peter Selinger 2001-2017
</metadata>
<g transform="translate(0.000000,500.000000) scale(0.100000,-0.100000)"
fill="#000000" stroke="none">
<path d="M1595 3722 c40 -25 42 -28 125 -172 l72 -125 -4 -87 c-4 -93 -18
-123 -62 -131 -11 -2 35 -4 104 -4 69 0 115 2 104 4 -45 9 -58 38 -62 136 l-4
92 51 88 c74 128 109 176 144 198 l32 19 -90 -1 c-49 -1 -81 -4 -70 -6 61 -15
57 -54 -16 -183 -61 -108 -52 -111 -134 45 -54 102 -54 122 -4 136 13 4 -30 7
-96 8 l-120 1 30 -18z"/>
<path d="M2235 3541 c-75 -18 -125 -75 -133 -150 -6 -66 12 -113 58 -155 110
-99 290 -17 290 134 0 109 -110 196 -215 171z m99 -29 c46 -41 61 -163 30
-242 -16 -40 -54 -70 -89 -70 -31 0 -73 30 -89 64 -21 45 -21 153 1 207 26 65
97 85 147 41z"/>
<path d="M2995 3536 c-43 -11 -47 -14 -27 -20 32 -11 42 -44 42 -145 0 -121
-7 -148 -39 -160 -20 -7 -3 -9 69 -9 52 0 85 3 73 5 -34 7 -44 26 -50 100 -6
77 9 168 34 195 21 24 50 23 63 -2 19 -36 66 -20 52 18 -15 41 -90 32 -129
-16 l-23 -27 0 38 c0 20 -3 36 -7 36 -5 -1 -30 -7 -58 -13z"/>
<path d="M2540 3520 c12 -7 16 -40 20 -149 6 -160 10 -170 82 -178 32 -4 58 1
92 15 l46 21 0 -21 c0 -14 5 -18 16 -14 9 3 32 6 52 7 37 0 37 0 15 16 -22 15
-23 21 -23 164 l0 149 -46 0 c-41 0 -44 -1 -30 -16 13 -12 16 -40 16 -135 0
-114 -1 -121 -25 -144 -17 -18 -35 -25 -64 -25 -64 0 -71 19 -71 182 l0 138
-47 0 c-34 0 -44 -3 -33 -10z"/>
<path d="M164 2421 c3 -4 24 -11 47 -14 76 -10 74 3 77 -377 2 -229 0 -352 -8
-380 -15 -55 -49 -88 -99 -96 -88 -14 -33 -24 129 -24 160 0 217 10 133 23
-50 8 -82 32 -101 76 -14 30 -17 87 -20 371 -2 184 -1 332 3 329 3 -4 77 -181
165 -395 90 -222 164 -390 172 -392 10 -2 62 115 173 385 87 213 162 392 167
397 10 12 10 -505 -1 -637 -9 -112 -17 -126 -80 -134 -22 -3 -41 -10 -41 -14
0 -5 90 -9 200 -9 127 0 200 4 200 10 0 6 -15 10 -34 10 -22 0 -45 9 -63 24
l-28 24 0 369 c0 202 3 380 7 394 8 29 45 49 88 49 17 0 30 5 30 10 0 6 -51
10 -132 10 l-133 0 -138 -338 c-76 -186 -142 -343 -146 -351 -5 -8 -61 119
-151 338 l-143 351 -139 0 c-77 0 -137 -4 -134 -9z"/>
<path d="M4665 2216 c-22 -51 -71 -103 -110 -116 -47 -16 -44 -30 6 -30 l42 0
-7 -229 c-7 -203 -6 -234 9 -265 39 -82 193 -89 264 -12 33 35 18 46 -16 12
-22 -23 -34 -26 -71 -24 -72 5 -84 29 -90 181 -2 68 -1 172 3 231 l7 106 74 0
c43 0 74 4 74 10 0 6 -32 10 -75 10 l-75 0 0 74 c0 85 -13 104 -35 52z"/>
<path d="M2207 2104 c-21 -7 -61 -16 -88 -20 -27 -4 -49 -10 -49 -13 0 -4 16
-13 35 -20 19 -7 40 -21 46 -32 6 -13 9 -96 7 -230 -3 -195 -4 -212 -22 -225
-11 -8 -30 -14 -43 -14 -13 0 -23 -4 -23 -10 0 -6 55 -10 145 -10 90 0 145 4
145 10 0 6 -10 10 -23 10 -13 0 -32 6 -43 14 -18 13 -19 30 -22 219 l-3 204
27 32 c58 69 127 80 179 28 43 -43 48 -79 44 -292 -4 -161 -5 -167 -28 -186
-13 -10 -34 -19 -47 -19 -13 0 -24 -4 -24 -10 0 -6 57 -10 150 -10 93 0 150 4
150 10 0 6 -11 10 -24 10 -13 0 -34 9 -47 19 -23 19 -24 25 -28 181 -2 88 0
182 4 207 19 125 178 166 229 59 15 -32 17 -64 14 -237 -3 -185 -5 -202 -22
-215 -11 -8 -30 -14 -43 -14 -13 0 -23 -4 -23 -10 0 -6 55 -10 145 -10 90 0
145 4 145 10 0 6 -10 10 -23 10 -13 0 -32 6 -43 14 -17 13 -19 32 -25 228 -6
229 -11 254 -60 291 -58 42 -182 34 -259 -18 -49 -33 -50 -33 -61 -13 -16 30
-86 58 -149 58 -55 0 -149 -34 -164 -59 -12 -18 -26 -2 -26 29 0 37 -7 40 -53
24z"/>
<path d="M3885 2099 c-33 -10 -72 -18 -87 -18 -38 -1 -35 -17 6 -31 53 -17 58
-41 54 -270 -3 -186 -5 -203 -22 -216 -11 -8 -30 -14 -43 -14 -13 0 -23 -4
-23 -10 0 -6 55 -10 145 -10 90 0 145 4 145 10 0 6 -11 10 -25 10 -47 0 -62
29 -70 135 -11 137 -2 283 19 322 23 45 87 77 139 70 91 -12 111 -74 105 -321
-4 -162 -5 -169 -27 -187 -13 -11 -34 -19 -47 -19 -13 0 -24 -4 -24 -10 0 -6
57 -10 150 -10 93 0 150 4 150 10 0 6 -11 10 -24 10 -13 0 -34 9 -47 19 -23
19 -24 23 -29 238 -4 190 -7 223 -23 247 -25 37 -74 56 -145 56 -67 0 -112
-13 -162 -47 l-35 -23 -3 32 c-2 18 -6 36 -10 39 -4 3 -34 -2 -67 -12z"/>
<path d="M1587 2096 c-212 -76 -274 -339 -117 -496 61 -61 119 -85 210 -85 88
0 144 23 205 83 88 86 116 232 65 338 -66 135 -230 207 -363 160z m135 -16
c25 0 76 -48 101 -94 19 -36 22 -56 22 -171 0 -119 -2 -134 -25 -180 -36 -72
-79 -98 -152 -93 -65 5 -96 27 -129 90 -41 80 -44 260 -5 351 27 64 99 112
151 101 11 -2 28 -4 37 -4z"/>
<path d="M3349 2095 c-64 -20 -141 -92 -170 -157 -19 -42 -24 -70 -24 -138 0
-74 4 -93 29 -143 18 -38 43 -69 69 -88 135 -98 346 -66 413 63 17 33 17 38 1
38 -6 0 -18 -14 -25 -30 -8 -17 -30 -43 -50 -58 -31 -24 -44 -27 -111 -27 -91
0 -123 18 -164 93 -29 53 -51 171 -41 221 l7 31 193 0 c212 0 202 -4 183 64
-24 88 -92 137 -198 142 -40 2 -84 -2 -112 -11z m159 -32 c24 -15 61 -85 62
-115 0 -16 -13 -18 -140 -18 -119 0 -140 2 -140 15 0 23 35 87 58 108 41 38
110 42 160 10z"/>
</g>
</svg>
